<?xml version="1.0" encoding="UTF-8"?>
<svg version="1.1" xmlns="http://www.w3.org/2000/svg" width="1600" height="1600">
<path d="M0 0 C34.65 0 69.3 0 105 0 C115.25178478 19.36448236 115.25178478 19.36448236 119.5625 28.5625 C120.50548238 30.55257079 121.44949506 32.5421537 122.39453125 34.53125 C122.8426416 35.47484375 123.29075195 36.4184375 123.75244141 37.390625 C125.38234267 40.79970224 127.05277214 44.18652254 128.75 47.5625 C129.05115723 48.1615918 129.35231445 48.76068359 129.66259766 49.37792969 C130.34831844 50.73982368 131.03455783 52.10145661 131.72119141 53.46289062 C134.6342415 59.24227524 137.53773492 65.02644103 140.4375 70.8125 C140.93163895 71.79799835 140.93163895 71.79799835 141.4357605 72.80340576 C145.32007767 80.55581618 149.14789809 88.32818069 152.8125 96.1875 C156.01795229 103.06131529 159.47922699 109.76185739 163.05541992 116.44921875 C167.70121695 125.20266199 171.91952299 134.15611275 176.1796875 143.1015625 C179.68344462 150.45359333 183.32578645 157.73211412 187 165 C188.33615637 167.6444208 189.6698391 170.29005799 191 172.9375 C191.32959717 173.59347168 191.65919434 174.24944336 191.9987793 174.92529297 C194.43772992 179.80797062 196.76217088 184.73829019 199.0625 189.6875 C203.90979834 202.38562116 203.90979834 202.38562116 212 212 C212.2686084 211.13681152 212.5372168 210.27362305 212.81396484 209.38427734 C213.98508796 206.04255058 215.38113856 203.01059002 216.9765625 199.8515625 C217.85272217 198.10891113 217.85272217 198.10891113 218.74658203 196.33105469 C219.37266176 195.09567292 219.99880233 193.86032199 220.625 192.625 C221.26846843 191.3481843 221.91153252 190.07116474 222.55419922 188.79394531 C223.81155934 186.29622774 225.07082572 183.79948895 226.33203125 181.30371094 C228.27375319 177.45778275 230.2020608 173.60534064 232.125 169.75 C232.73163874 168.53639229 233.33841329 167.32285247 233.9453125 166.109375 C234.26274414 165.47451172 234.58017578 164.83964844 234.90722656 164.18554688 C236.88720703 160.22558594 236.88720703 160.22558594 238.8671875 156.265625 C239.37902588 155.24186768 239.89086426 154.21811035 240.41821289 153.16333008 C241.4692218 151.06147448 242.5204896 148.95974831 243.57202148 146.8581543 C245.79749013 142.40968465 248.02191352 137.96080131 250.23046875 133.50390625 C253.5356676 126.84265933 256.92314603 120.24105102 260.4375 113.6875 C264.0631458 106.9210286 267.38238337 100.04365973 270.62475586 93.08666992 C273.43762893 87.08925102 276.47860379 81.24742859 279.62280273 75.41845703 C282.44452395 70.14789148 285.03584096 64.79252607 287.5625 59.375 C290.54930498 52.97378225 293.6841518 46.69855236 297.05102539 40.48950195 C300.88070351 33.41633063 304.43184596 26.20760326 308 19 C309.4557771 16.0612229 310.91461276 13.12398834 312.375 10.1875 C312.87580078 9.17345093 312.87580078 9.17345093 313.38671875 8.13891602 C314.79910785 5.2992438 316.23768518 2.64347223 318 0 C319.85468483 -0.36914349 319.85468483 -0.36914349 322.15078735 -0.36076355 C323.02019455 -0.36488754 323.88960175 -0.36901154 324.78535461 -0.3732605 C325.74129013 -0.36247467 326.69722565 -0.35168884 327.68212891 -0.34057617 C328.68703873 -0.34101425 329.69194855 -0.34145233 330.72731018 -0.34190369 C334.06058954 -0.33980777 337.39337063 -0.31643865 340.7265625 -0.29296875 C343.03298671 -0.28737566 345.33941447 -0.28310421 347.64584351 -0.28010559 C353.72540067 -0.26863428 359.80474387 -0.23914735 365.88421631 -0.20599365 C372.08423976 -0.17534203 378.28429767 -0.16161076 384.484375 -0.14648438 C396.65634417 -0.11427992 408.82815431 -0.06305594 421 0 C421.75027381 7.19990538 422.15622342 14.31461356 422.18945312 21.55175781 C422.19776909 22.54996583 422.20608505 23.54817385 422.21465302 24.57663059 C422.24108044 27.86877841 422.26113285 31.1609331 422.28125 34.453125 C422.29903559 36.7967716 422.31727499 39.14041479 422.3359375 41.48405457 C422.37492371 46.47111576 422.41130074 51.45818607 422.44555664 56.44528198 C422.52741897 68.32412974 422.62302188 80.20287043 422.71824646 92.08161736 C422.73945393 94.73253186 422.7605003 97.38344765 422.78138733 100.0343647 C422.94501372 120.76854447 423.17422527 141.50072337 423.46875 162.23340225 C423.82212861 187.15759421 424.06820037 212.08181316 424.25 237.0078125 C424.26058337 238.4515311 424.27116789 239.89524969 424.28175354 241.33896828 C424.38210227 255.05816114 424.47953021 268.77737006 424.56769335 282.496647 C424.61565042 289.94700034 424.66598315 297.39733541 424.71875 304.84765625 C424.72575951 305.84178685 424.72575951 305.84178685 424.73291063 306.8560009 C424.90195837 330.61423739 425.23230442 354.36799924 425.65881348 378.12294006 C426.54380266 427.84036728 426.54380266 427.84036728 426 440 C425 441 425 441 422.47315979 441.05105591 C421.34578903 441.01632172 420.21841827 440.98158752 419.05688477 440.94580078 C417.77946915 440.90891144 416.50205353 440.87202209 415.18592834 440.83401489 C413.77108335 440.7879125 412.35624277 440.74167446 410.94140625 440.6953125 C409.48055764 440.651021 408.0196961 440.60715407 406.55882263 440.56369019 C402.68060278 440.44701757 398.8026081 440.32398366 394.92462158 440.1998291 C391.84292303 440.10220469 388.76109821 440.00903818 385.67925453 439.91612625 C376.81333765 439.64882744 367.94806892 439.3643062 359.08304596 439.06892395 C357.02958165 439.0009788 354.976073 438.93456276 352.92254639 438.86853027 C349.22811272 438.74827079 345.53397156 438.62146051 341.83984375 438.4921875 C340.74515274 438.45723175 339.65046173 438.422276 338.52259827 438.38626099 C337.53666183 438.35015717 336.5507254 438.31405334 335.53491211 438.27685547 C334.24840004 438.23260941 334.24840004 438.23260941 332.93589783 438.18746948 C331 438 331 438 330 437 C329.90314704 435.48307495 329.87628286 433.96163262 329.87695217 432.44161892 C329.87496112 431.45034353 329.87297007 430.45906814 329.87091869 429.43775409 C329.87383153 428.33563762 329.87674437 427.23352115 329.87974548 426.0980072 C329.87846385 424.35713226 329.87846385 424.35713226 329.87715632 422.58108813 C329.87578816 419.34528578 329.87893553 416.10952296 329.88393438 412.8737253 C329.88823566 409.38972939 329.88679269 405.90573548 329.8860321 402.42173767 C329.88550666 396.38069657 329.88865556 390.33966624 329.89426994 384.29862785 C329.90238223 375.56420171 329.90499988 366.82978079 329.90625793 358.09535129 C329.90844888 343.92578788 329.91511012 329.75623021 329.92456055 315.58666992 C329.93373356 301.81876657 329.94081493 288.05086477 329.94506836 274.28295898 C329.94546244 273.01089295 329.94546244 273.01089295 329.94586449 271.71312862 C329.94716949 267.45892303 329.94843321 263.20471742 329.94967639 258.95051181 C329.96005034 223.63367045 329.97766981 188.31683575 330 153 C329.34 153 328.68 153 328 153 C327.62681641 154.25490234 327.62681641 154.25490234 327.24609375 155.53515625 C325.86053528 159.38779062 324.03094106 162.86377833 322.0625 166.4375 C318.30855925 173.38325689 314.81891138 180.42840344 311.4375 187.5625 C307.37454189 196.13205643 303.22740567 204.64765827 298.95166016 213.11279297 C297.63041969 215.73290297 296.3188465 218.35780338 295.00756836 220.98291016 C294.00087752 222.99824325 292.99262928 225.01279248 291.984375 227.02734375 C290.69764278 229.60018112 289.4165746 232.17570575 288.140625 234.75390625 C284.76425327 241.56210107 281.31455393 248.32352566 277.7722168 255.04711914 C272.42986015 265.19117051 267.35062965 275.42549917 262.43945312 285.78491211 C258.77274172 293.48416507 254.88714293 301.04217129 250.8828125 308.5703125 C247.54210766 314.87944422 244.42984228 321.27010998 241.45996094 327.76171875 C240.12298465 330.67612427 238.78381326 333.32428011 237 336 C234.74740601 336.36076355 234.74740601 336.36076355 231.90771484 336.34057617 C230.84676605 336.34034958 229.78581726 336.34012299 228.69271851 336.33988953 C226.96923691 336.31666374 226.96923691 336.31666374 225.2109375 336.29296875 C223.45059677 336.28660149 223.45059677 336.28660149 221.6546936 336.28010559 C217.89456546 336.26326976 214.13496703 336.22560777 210.375 336.1875 C207.83073689 336.17245954 205.2864654 336.15877003 202.7421875 336.14648438 C196.49460995 336.11335017 190.24734281 336.06310206 184 336 C183.62295677 335.20047409 183.62295677 335.20047409 183.23829651 334.38479614 C182.07779172 331.92534797 180.91585686 329.46657791 179.75390625 327.0078125 C179.35868774 326.16968018 178.96346924 325.33154785 178.55627441 324.46801758 C176.0823091 319.23604377 173.54923017 314.0395229 170.9375 308.875 C167.848851 302.75021312 164.89864701 296.57164087 161.99975586 290.35498047 C159.74182177 285.53033497 157.40092451 280.75495597 155 276 C152.24307245 270.53999114 149.58501225 265.04345721 147 259.5 C144.45383971 254.04128981 141.84041647 248.6265246 139.125 243.25 C135.99032941 237.04285466 132.97534854 230.78499955 130 224.5 C125.23321028 214.43808627 120.27777445 204.48222061 115.25390625 194.546875 C110.78564076 185.68097892 106.4321945 176.75998419 102.10012817 167.82693481 C101.41033298 166.40467982 100.71996748 164.98270128 100.02902222 163.56100464 C99.04994465 161.54551679 98.0734224 159.52881147 97.09765625 157.51171875 C96.23926147 155.73994263 96.23926147 155.73994263 95.36352539 153.93237305 C94 151 94 151 93 148 C91.99010272 151.02969185 91.8776005 153.03466817 91.8825388 156.20214844 C91.88178114 157.28612411 91.88102349 158.37009979 91.88024288 159.48692322 C91.88665851 161.28003685 91.88665851 161.28003685 91.89320374 163.109375 C91.89376044 164.37572281 91.89431715 165.64207062 91.89489073 166.9467926 C91.8965399 170.46872675 91.90441717 173.9906241 91.91325247 177.51254654 C91.92166715 181.30808382 91.9242791 185.10362531 91.92750549 188.89916992 C91.93380977 195.47819681 91.94355381 202.05721135 91.95540047 208.63623047 C91.97235514 218.15171207 91.98192352 227.66719059 91.9892792 237.18268394 C92.00123135 252.62439713 92.01618357 268.06610547 92.03442383 283.5078125 C92.03551395 284.43241964 92.03660407 285.35702679 92.03772723 286.30965233 C92.05334377 299.43655464 92.0719374 312.56345107 92.0917251 325.69034767 C92.09311842 326.61495481 92.09451173 327.53956196 92.09594727 328.4921875 C92.09803756 329.87741387 92.09803756 329.87741387 92.10017008 331.29062462 C92.12318297 346.67358931 92.13851252 362.05655019 92.14750665 377.43952942 C92.15336881 386.93434311 92.16576777 396.42910462 92.18647944 405.92389774 C92.20015985 412.42615676 92.20667892 418.92839746 92.20748956 425.43067074 C92.20819545 429.18593996 92.2122356 432.94113125 92.2249527 436.69638062 C92.2386462 440.76117268 92.23700032 444.82581124 92.23377991 448.890625 C92.24354161 450.68373863 92.24354161 450.68373863 92.25350052 452.51307678 C92.25013512 453.59705246 92.24676973 454.68102814 92.24330235 455.79785156 C92.24525462 457.20626312 92.24525462 457.20626312 92.24724633 458.64312744 C92 461 92 461 90 464 C87.13470944 464.29147533 84.48587951 464.388528 81.61889648 464.35644531 C80.75214294 464.35848969 79.8853894 464.36053406 78.99237061 464.36264038 C76.11839926 464.36565624 73.24499719 464.34714862 70.37109375 464.328125 C68.38094729 464.32506894 66.39079869 464.32319165 64.40065002 464.32244873 C60.22673376 464.31784075 56.05300991 464.30339489 51.87915039 464.28125 C46.51640029 464.25294892 41.15380183 464.2420373 35.79098415 464.2375679 C31.68104013 464.23342046 27.57112707 464.22360895 23.46119881 464.21169281 C21.4831473 464.20597714 19.50509279 464.20122276 17.52703667 464.19742584 C14.76854026 464.19058647 12.01016655 464.17696571 9.25170898 464.16113281 C8.42623062 464.16001495 7.60075226 464.15889709 6.7502594 464.15774536 C1.1146863 464.1146863 1.1146863 464.1146863 0 463 C-0.09880097 460.5395173 -0.13178223 458.10710649 -0.12304783 455.64610958 C-0.12420167 454.86323872 -0.12535552 454.08036786 -0.12654433 453.27377364 C-0.12921828 450.61665341 -0.12468247 447.95959222 -0.12025452 445.30247498 C-0.12069006 443.39182921 -0.12156465 441.48118349 -0.12284368 439.5705381 C-0.12509197 434.29386123 -0.12106283 429.01720445 -0.11606562 423.74053013 C-0.11176606 418.06019471 -0.11320719 412.37986052 -0.1139679 406.69952393 C-0.11449345 396.84919908 -0.11134341 386.99888084 -0.10573006 377.14855766 C-0.09761925 362.90646467 -0.09500027 348.66437489 -0.09374207 334.42227984 C-0.09155088 311.31805763 -0.08489757 288.21383938 -0.07543945 265.10961914 C-0.06625979 242.65974954 -0.05917384 220.20988087 -0.05493164 197.76000977 C-0.05480011 197.0683934 -0.05466859 196.37677704 -0.05453308 195.66420261 C-0.05321459 188.71890807 -0.05193877 181.77361353 -0.05069422 174.82831898 C-0.04024748 116.55220974 -0.02176693 58.27610635 0 0 Z " fill="#6BA101" transform="translate(782,496)"/>
<path d="M0 0 C29.37 0 58.74 0 89 0 C89.12863736 45.01794495 89.25635711 90.03589211 89.38218227 135.05384499 C89.39719431 140.42448718 89.41221692 145.79512934 89.42724609 151.16577148 C89.43023671 152.23452487 89.43322732 153.30327825 89.43630856 154.4044181 C89.48412935 171.48517425 89.53279769 188.56592788 89.58180541 205.64668066 C89.63244622 223.30354201 89.68211583 240.96040592 89.73096704 258.61727232 C89.75827945 268.47984121 89.78597891 278.34240863 89.81480408 288.20497322 C89.91365053 322.08607781 90.00497699 355.96709076 90.01342773 389.84835815 C90.01366192 390.78586647 90.01389611 391.72337479 90.01413739 392.68929245 C90.01817217 412.45952998 90.00711704 432.22976376 90 452 C58.65 452 27.3 452 -5 452 C-5 401.68917619 -5 401.68917619 -4.62988281 381.07119751 C-4.00906239 345.86522499 -3.76977063 310.65561872 -3.51542425 275.44555664 C-3.42841553 263.41291235 -3.34022511 251.38027687 -3.25 239.34765625 C-3.24483958 238.65877964 -3.23967916 237.96990304 -3.23436236 237.26015139 C-3.03630455 210.88587154 -2.75445897 184.51343796 -2.40625 158.14075279 C-2.35349176 154.13420841 -2.30147403 150.12765483 -2.25 146.12109375 C-2.2396875 145.31946178 -2.229375 144.51782982 -2.21875 143.69190598 C-2.03377069 129.14838167 -1.90228851 114.60454459 -1.78138733 100.06035995 C-1.75008495 96.29537398 -1.71829526 92.53039238 -1.68640137 88.76541138 C-1.59274897 77.66212494 -1.50106786 66.55884082 -1.41920471 55.45546055 C-1.38462664 50.88059234 -1.34652747 46.30575782 -1.30761719 41.73092461 C-1.29032979 39.60491581 -1.27456931 37.47889392 -1.26049805 35.3528614 C-1.24083809 32.40356919 -1.21570943 29.45436685 -1.18945312 26.50512695 C-1.18526619 25.67360233 -1.18107925 24.84207771 -1.17676544 23.98535538 C-1.09485289 15.94278132 -0.50431808 8.06908933 0 0 Z " fill="#6BA101" transform="translate(397,496)"/>
<path d="M0 0 C0.27880005 0.95084473 0.27880005 0.95084473 0.56323242 1.92089844 C4.89714424 16.62815174 9.11245298 30.75324295 17 44 C17.56332031 44.98613281 18.12664062 45.97226562 18.70703125 46.98828125 C28.91662312 64.35082546 42.75555622 77.26317675 59 89 C57.65264491 92.25483224 56.55083022 93.59465609 53.375 95.10546875 C52.66859375 95.44900391 51.9621875 95.79253906 51.234375 96.14648438 C50.49703125 96.49001953 49.7596875 96.83355469 49 97.1875 C48.26265625 97.54263672 47.5253125 97.89777344 46.765625 98.26367188 C45.40106764 98.91980484 44.03410725 99.57097967 42.6640625 100.21557617 C41.43525311 100.79482567 40.21507283 101.39246358 39 102 C38.30772968 104.80980673 38.30772968 104.80980673 37.875 108.0625 C37.70742188 109.16722656 37.53984375 110.27195312 37.3671875 111.41015625 C37.18542969 112.69212891 37.18542969 112.69212891 37 114 C47.34083775 112.42258407 55.53947465 107.04361577 64.4375 101.8125 C112.12064256 73.83417927 112.12064256 73.83417927 129.9375 77.625 C133.69171363 80.12780909 134.78482432 84.16437912 135.87548828 88.39990234 C136.10478027 89.61629395 136.33407227 90.83268555 136.5703125 92.0859375 C136.69687225 92.74655182 136.82343201 93.40716614 136.9538269 94.08779907 C137.21833171 95.47701807 137.47861847 96.86704624 137.73486328 98.2578125 C138.12292925 100.36376249 138.52313385 102.46710668 138.92578125 104.5703125 C145.13983261 137.30195572 145.13983261 137.30195572 138 148 C135.75 150.6875 135.75 150.6875 133 153 C132.38898438 153.515625 131.77796875 154.03125 131.1484375 154.5625 C126.8792339 157.99104961 123.36274398 159.88276167 118 161 C119.65281332 157.50901112 121.71083483 154.50763763 123.9765625 151.390625 C126.84324601 144.69440245 124.42982882 136.22160795 123.25 129.3125 C122.98147217 127.72272339 122.98147217 127.72272339 122.70751953 126.10083008 C120.54919066 112.94243955 120.54919066 112.94243955 115 101 C109.73721667 100.41883374 105.6902884 101.53584241 100.9375 103.625 C99.87921997 104.0727478 99.87921997 104.0727478 98.79956055 104.52954102 C93.17535881 106.95057818 87.64530053 109.56939605 82.11296082 112.19143677 C40.2801419 132.01723674 40.2801419 132.01723674 27 130 C24.10586227 123.1264229 24.40238958 116.17007557 26 109 C18.96054021 112.66339234 12.25274594 116.65855329 5.68505859 121.10327148 C1.31978497 124 1.31978497 124 -2 124 C-2.05945801 123.08057617 -2.05945801 123.08057617 -2.12011719 122.14257812 C-3.74692068 98.10902823 -8.00269594 69.51530642 -24.6875 50.6875 C-26.81028624 48.81888652 -26.81028624 48.81888652 -29.125 48.875 C-32.23526829 50.74116097 -33.43053158 53.49867416 -34.6875 56.8125 C-35.8528104 64.9696728 -34.54482884 70.11419252 -30 77 C-28.25333898 79.0714308 -26.49119449 81.10526839 -24.6875 83.125 C-15.50977865 93.48764206 -10.2218999 105.33807006 -8 119 C-7.81308594 119.8559375 -7.62617187 120.711875 -7.43359375 121.59375 C-6.6543816 125.80570757 -6.6136493 127.3768537 -8.9375 131.125 C-11.20212364 133.41499758 -13.6834748 135.4639617 -16.125 137.5625 C-20.54897276 141.11096554 -20.54897276 141.11096554 -23 146 C-21.97400276 148.65526324 -20.7270396 151.03950176 -19.296875 153.5 C-17.98114403 156.03634885 -17.42172392 158.18850717 -17 161 C-9.27307253 159.80099401 -3.0424004 156.67413762 3.82470703 153.11083984 C39.86580651 134.70601351 39.86580651 134.70601351 52.7265625 137.6171875 C55 139 55 139 56.2109375 141.43359375 C63.89743529 176.17504168 63.89743529 176.17504168 56.55078125 188.90234375 C53.23506843 193.38732557 49.60680787 195.96125273 44.0625 196.8125 C43.051875 196.874375 42.04125 196.93625 41 197 C42.02551279 193.92346162 42.80796996 193.19203004 45 191 C46.2245075 187.3264775 45.98358668 184.1139006 45.75 180.3125 C45.70625244 179.5687915 45.66250488 178.82508301 45.61743164 178.05883789 C45.07618505 170.2416554 43.63747129 162.65183126 42 155 C36.79382963 153.15264922 32.89301283 155.12246901 28 157 C26.93330078 157.40202637 25.86660156 157.80405273 24.76757812 158.21826172 C20.46438006 159.85069382 16.1680767 161.50070797 11.87646484 163.16333008 C-14.2480986 173.2704373 -14.2480986 173.2704373 -23 172 C-26.23787195 168.76212805 -26.65601347 164.47475112 -27.375 160.0859375 C-28.10085722 157.66338903 -29.09831502 156.62263338 -31 155 C-31.33 155.99 -31.66 156.98 -32 158 C-32.99 158.33 -33.98 158.66 -35 159 C-35.54527344 157.96101562 -36.09054687 156.92203125 -36.65234375 155.8515625 C-43.1883041 143.6539345 -50.44018513 132.73437442 -63 126 C-65.48652972 125.26292155 -67.38771894 125.05678872 -70 125 C-69.9793572 129.73752205 -69.81775041 133.00052727 -66.75 136.75 C-62.66939775 139.63918554 -57.81607081 141.09323385 -53.12109375 142.69140625 C-47.50539781 145.04592207 -44.47379411 148.31549313 -41.3125 153.4375 C-40.73113281 154.36433594 -40.14976562 155.29117188 -39.55078125 156.24609375 C-36.44299513 161.76495827 -35.78556115 164.70699871 -37 171 C-39.45909546 183.94260769 -38.24791941 195.30251081 -34.09375 207.68359375 C-33 211 -33 211 -33 213 C-32.0925 213.268125 -31.185 213.53625 -30.25 213.8125 C-27 215 -27 215 -25 216.6875 C-23.02068574 218.27119575 -23.02068574 218.27119575 -20.296875 217.83984375 C-16.42238539 216.85285884 -13.51185173 215.09407652 -10.25 212.875 C-9.63656738 212.46975098 -9.02313477 212.06450195 -8.39111328 211.64697266 C-4.83934017 209.28748103 -1.34862241 206.84812923 2.125 204.375 C18.72922876 192.7056898 18.72922876 192.7056898 28 193 C31.53700551 195.36090762 32.35723515 199.31759189 33.5625 203.1875 C33.8867395 204.20287842 33.8867395 204.20287842 34.2175293 205.23876953 C34.82334478 207.15553378 35.41221753 209.07762924 36 211 C36.25265625 211.80824219 36.5053125 212.61648438 36.765625 213.44921875 C38.39231574 219.177494 39.2122895 225.19259274 36.8125 230.75 C30.57627119 238.49152542 30.57627119 238.49152542 26 239 C26.33 238.319375 26.66 237.63875 27 236.9375 C29.21414797 230.43344032 27.61441164 224.57733737 25.6875 218.25 C25.47416016 217.49589844 25.26082031 216.74179687 25.04101562 215.96484375 C24.82509766 215.23910156 24.60917969 214.51335937 24.38671875 213.765625 C24.19295654 213.11368164 23.99919434 212.46173828 23.79956055 211.79003906 C22.87022007 209.70945147 21.68676191 208.50931537 20 207 C11.41035452 211.11105061 3.14890651 215.53961769 -4.96069336 220.53466797 C-16.06338573 227.2621977 -16.06338573 227.2621977 -22.5 226.6875 C-23.7375 226.3471875 -23.7375 226.3471875 -25 226 C-25.33 225.01 -25.66 224.02 -26 223 C-26 230.27286641 -19.78323344 236.79937449 -15.35546875 242.15234375 C-14 244 -14 244 -14 246 C-13.34 246 -12.68 246 -12 246 C-10.625 247.43359375 -10.625 247.43359375 -9 249.4375 C3.09012157 263.53027975 18.86998163 273.23299984 35.06494141 281.95458984 C36.93026234 282.96232442 38.78421692 283.98846442 40.63671875 285.01953125 C48.42432663 289.3121046 56.39464077 293.03854497 64.51977539 296.64672852 C113.14989095 318.28641063 113.14989095 318.28641063 122 337 C123.86288992 342.58866976 123.97413506 349.33046712 121.8125 354.875 C119.13968865 359.48329543 116.79499746 362.2608834 111.8125 364.3125 C90.42449111 368.16935406 70.39602762 357.57822188 52 348 C51.03449219 347.50757813 50.06898438 347.01515625 49.07421875 346.5078125 C32.69113294 337.91579416 16.55985888 326.5802493 3 314 C1.61167969 312.74703125 1.61167969 312.74703125 0.1953125 311.46875 C-12.34512031 300.10361549 -24.65183681 288.43011614 -35 275 C-35.61746094 274.24332031 -36.23492188 273.48664063 -36.87109375 272.70703125 C-41.86704123 266.35438611 -46.39811212 259.64061825 -51 253 C-51.67933594 252.02289062 -52.35867188 251.04578125 -53.05859375 250.0390625 C-58.31115278 242.15415864 -62.14603291 233.62666196 -66 225 C-66.4640625 223.98035156 -66.928125 222.96070313 -67.40625 221.91015625 C-84.92173254 181.88278749 -85.77058952 135.96260864 -71.140625 94.859375 C-62.14860668 72.31774003 -49.30990373 52.7400582 -34.25 33.86328125 C-31.96536831 31.03249585 -31.96536831 31.03249585 -30 28 C-29.34 28 -28.68 28 -28 28 C-27.67322266 27.19755859 -27.67322266 27.19755859 -27.33984375 26.37890625 C-25.52313246 23.15331682 -23.0869307 20.61278519 -20.5625 17.9375 C-20.03406494 17.37329346 -19.50562988 16.80908691 -18.96118164 16.2277832 C-17.31457643 14.47828048 -15.65868753 12.73804588 -14 11 C-13.4750293 10.44634766 -12.95005859 9.89269531 -12.40917969 9.32226562 C-10.92845583 7.76745868 -9.43595462 6.22520654 -7.9375 4.6875 C-7.05964844 3.78386719 -6.18179688 2.88023437 -5.27734375 1.94921875 C-3 0 -3 0 0 0 Z " fill="#6BA101" transform="translate(580,564)"/>
<path d="M0 0 C1.85625 0.061875 1.85625 0.061875 3.75 0.125 C4.5390625 2.2734375 4.5390625 2.2734375 4.75 5.125 C2.8359375 7.8515625 2.8359375 7.8515625 0.125 10.75 C-10.10899594 22.29299543 -14.64230758 37.80608682 -15.25 53.125 C-15.3015625 53.93582031 -15.353125 54.74664062 -15.40625 55.58203125 C-15.87490256 68.60666709 -13.02146367 81.48341517 -7.25 93.125 C-6.80785156 94.05828125 -6.36570312 94.9915625 -5.91015625 95.953125 C-0.85078862 105.98777104 6.2633204 115.18904722 16.9375 119.375 C34.20562126 122.77200746 50.51687326 114.74422956 64.6237793 105.28759766 C71.97790324 100.25376811 79.10042479 94.93859872 86.09960938 89.42382812 C87.86885207 88.03146553 89.64491302 86.64812003 91.421875 85.265625 C98.83045987 79.49786372 98.83045987 79.49786372 106 73.4375 C108.75 71.125 108.75 71.125 110.75 71.125 C110.75 70.465 110.75 69.805 110.75 69.125 C112.30351843 67.8719687 113.92150923 66.69857053 115.5625 65.5625 C119.50210689 62.77215423 123.29641641 59.90903004 127 56.8125 C133.15617245 51.71318119 139.57451637 47.01390443 146.06054688 42.34716797 C147.4821999 41.31872938 148.89109089 40.27268211 150.296875 39.22265625 C168.08599234 26.18752716 191.18209615 13.66393121 213.9453125 16.625 C214.87085938 16.79 215.79640625 16.955 216.75 17.125 C217.69617188 17.29 218.64234375 17.455 219.6171875 17.625 C230.33996846 20.00123955 238.49433687 27.26621779 244.75 36.125 C252.10822669 50.62234987 252.83311437 65.89522798 248.1484375 81.39453125 C245.57285266 88.2651556 242.2895082 94.70719083 238.75 101.125 C237.97269531 102.55005859 237.97269531 102.55005859 237.1796875 104.00390625 C229.93312178 116.65569722 219.36792902 128.19443266 208.75 138.125 C208.09 138.125 207.43 138.125 206.75 138.125 C206.42 139.115 206.09 140.105 205.75 141.125 C205.07839844 141.52976562 204.40679688 141.93453125 203.71484375 142.3515625 C201.39938865 144.05642177 201.39938865 144.05642177 201.31640625 147.3984375 C201.30351682 148.76556486 201.30311342 150.1328441 201.3125 151.5 C200.58244136 178.96396832 188.38415694 204.31608099 169.75 224.125 C168.95335937 224.99318359 168.95335937 224.99318359 168.140625 225.87890625 C166.75 227.125 166.75 227.125 164.75 227.125 C164.42 228.115 164.09 229.105 163.75 230.125 C161.59382864 231.80866779 159.47229392 233.32271499 157.1875 234.8125 C156.52290771 235.25021729 155.85831543 235.68793457 155.17358398 236.13891602 C148.02501437 240.74606923 140.52559159 244.68406579 132.75 248.125 C132.06534668 248.42937988 131.38069336 248.73375977 130.67529297 249.04736328 C127.72185332 250.26926163 125.35019785 251.11423412 122.13671875 251.171875 C118.60438329 249.62250363 116.19292553 247.11392911 113.5625 244.375 C112.99442627 243.79371338 112.42635254 243.21242676 111.84106445 242.61352539 C106.28271608 236.8211413 101.42241428 230.64221233 96.75 224.125 C96.06421875 223.19558594 95.3784375 222.26617188 94.671875 221.30859375 C80.91479182 201.83744649 74.35096552 179.22606291 69.75 156.125 C69.48413086 155.00520752 69.48413086 155.00520752 69.21289062 153.86279297 C68.796875 151.77734375 68.796875 151.77734375 68.75 148.125 C70.8046875 145.484375 70.8046875 145.484375 73.75 143.125 C74.73959843 142.20102129 75.7211615 141.2683758 76.6953125 140.328125 C83.50226221 133.98031072 90.45154425 127.90830822 97.75 122.125 C98.57201904 121.46951172 98.57201904 121.46951172 99.41064453 120.80078125 C121.58582808 103.125 121.58582808 103.125 124.75 103.125 C124.75 102.465 124.75 101.805 124.75 101.125 C127.20024372 99.45342269 129.64744744 97.89891913 132.1875 96.375 C133.67511926 95.46589033 135.1621041 94.55574169 136.6484375 93.64453125 C137.36483398 93.20705566 138.08123047 92.76958008 138.81933594 92.31884766 C141.02367668 90.95576898 143.17474434 89.52756421 145.3125 88.0625 C150.39574667 84.62839824 155.66543903 81.51012696 160.9453125 78.390625 C163.40300043 76.938185 165.83188395 75.45157022 168.2421875 73.921875 C169.29664063 73.26703125 170.35109375 72.6121875 171.4375 71.9375 C172.36949219 71.34582031 173.30148437 70.75414062 174.26171875 70.14453125 C176.75 69.125 176.75 69.125 178.83984375 69.5 C181.69086828 71.92541146 183.0575171 74.98801976 184.625 78.3125 C185.14271973 79.38455688 185.14271973 79.38455688 185.67089844 80.47827148 C193.26872138 96.43475393 198.49446962 112.52592746 200.75 130.125 C219.64957619 115.6445314 237.14807039 96.14234924 242.390625 72.19921875 C243.76640375 60.43032881 244.12764067 49.28814416 236.76171875 39.4765625 C229.62123801 31.0658408 222.57245463 26.16012554 211.5859375 24.87109375 C190.14301878 23.75950432 170.06959243 37.09340573 153.5 49.1875 C150.75 51.125 150.75 51.125 148.75 51.125 C148.75 51.785 148.75 52.445 148.75 53.125 C146.90625 54.61328125 146.90625 54.61328125 144.25 56.4375 C133.4370349 64.10942382 123.3484169 72.73343718 113.25341797 81.31616211 C52.25252503 133.10919454 52.25252503 133.10919454 20.8125 132.1875 C12.1471312 130.98397656 2.18294337 125.87471541 -3.61328125 119.3046875 C-13.17199253 106.57494789 -20.34372494 92.62990715 -24.25 77.125 C-24.41822266 76.51156738 -24.58644531 75.89813477 -24.75976562 75.26611328 C-29.28289361 55.51121667 -26.52173576 30.01253507 -16.63671875 12.20703125 C-12.44274285 5.91016039 -8.18537419 -0.27284581 0 0 Z M102.75 139.125 C96.81263152 145.33852516 94.59585021 150.23757901 94.375 158.6875 C94.55968029 165.40524565 95.83959478 168.87170154 100.1875 174 C104.00819702 176.9273002 108.0467725 176.81778409 112.70703125 176.609375 C118.93026824 175.61876988 123.19303797 173.00133886 127.1875 168.1875 C131.21040755 160.3026012 132.0715669 152.86613716 129.5625 144.3125 C127.67897859 139.30746188 124.94699135 136.22349568 120.125 133.8125 C113.49827079 131.89423628 107.92829685 135.15864496 102.75 139.125 Z " fill="#6BA101" transform="translate(527.25,397.875)"/>
<path d="M0 0 C0.75539063 0.52464844 1.51078125 1.04929687 2.2890625 1.58984375 C2.85367188 2.05519531 3.41828125 2.52054688 4 3 C4 3.66 4 4.32 4 5 C4.66 5 5.32 5 6 5 C19.61785759 20.33012259 24.18678629 37.80181021 23 58 C22.67 58.66 22.34 59.32 22 60 C7.71190112 60.49677798 -5.19996538 59.85918571 -19 56 C-18.67386719 56.71542969 -18.34773437 57.43085937 -18.01171875 58.16796875 C-10.57841865 75.11764714 -7.32486179 94.56167936 -13.8515625 112.3828125 C-17.81070746 121.40535373 -17.81070746 121.40535373 -21 123 C-43.66673583 124.63931886 -67.62135913 119.17570385 -85.64453125 104.90625 C-88.19053867 102.68484875 -90.6051212 100.38306197 -93 98 C-93.78375 97.25105469 -94.5675 96.50210938 -95.375 95.73046875 C-108.79215979 82.06400363 -112.91755449 63.6120749 -113 45 C-112.67 44.34 -112.34 43.68 -112 43 C-107.97440064 44.24952718 -104.39465319 45.75425328 -100.6875 47.75 C-84.72972534 55.8479752 -64.08418476 63.10467762 -46.0859375 58.20703125 C-43.93766475 57.26940719 -41.99440505 56.22558677 -40 55 C-39.071875 54.5875 -38.14375 54.175 -37.1875 53.75 C-31.90809473 49.52647579 -29.42071593 41.4358468 -28.625 34.9375 C-29.88379444 21.72015839 -35.60336661 11.24902893 -45.75 2.75 C-50.47502311 -0.82688665 -55.52096174 -3.73553343 -60.7265625 -6.5546875 C-61.47679687 -7.03164063 -62.22703125 -7.50859375 -63 -8 C-63 -8.66 -63 -9.32 -63 -10 C-42.21970411 -19.158723 -17.38025553 -13.14191251 0 0 Z " fill="#6BA101" transform="translate(740,876)"/>
<path d="M0 0 C2.93699107 3.89136 5.02269109 7.93668116 6.98046875 12.38671875 C7.50447266 13.57201172 8.02847656 14.75730469 8.56835938 15.97851562 C9.10807639 17.21484223 9.6477899 18.45117037 10.1875 19.6875 C10.73844666 20.93576133 11.28987501 22.18381018 11.84179688 23.43164062 C15.83047672 32.49143017 15.83047672 32.49143017 17 36 C17.66 36.33 18.32 36.66 19 37 C19.16435547 36.46777832 19.32871094 35.93555664 19.49804688 35.38720703 C21.43030062 29.34302305 23.84441214 23.63315585 26.5 17.875 C27.28180566 16.16431633 28.06306615 14.4533834 28.84375 12.7421875 C29.21371094 11.93749023 29.58367188 11.13279297 29.96484375 10.30371094 C30.90988964 8.20053806 31.7891643 6.08143694 32.65625 3.9453125 C34 1 34 1 36 0 C38.27734375 0.015625 38.27734375 0.015625 40.9375 0.25 C41.81277344 0.31703125 42.68804688 0.3840625 43.58984375 0.453125 C46.50318891 1.11417576 47.26621921 1.57638161 49 4 C49.29591948 6.50579768 49.41007571 8.76348274 49.38818359 11.26953125 C49.39344055 12.00642181 49.39869751 12.74331238 49.40411377 13.50253296 C49.41732234 15.93940398 49.40857302 18.37562228 49.3984375 20.8125 C49.400458 22.50496547 49.40336923 24.19743009 49.40713501 25.88989258 C49.41155951 29.43742154 49.40512335 32.98472393 49.39111328 36.53222656 C49.3740212 41.08217909 49.38386173 45.63160077 49.40183067 50.18153381 C49.41266518 53.67651376 49.40922373 57.1713676 49.4014473 60.66635132 C49.39944436 62.34410668 49.40190785 64.02187344 49.40888596 65.69961548 C49.41649511 68.04354225 49.40490465 70.38660632 49.38818359 72.73046875 C49.39729263 73.7732045 49.39729263 73.7732045 49.40658569 74.83700562 C49.36878562 77.69347631 49.30863576 79.56598589 47.62637329 81.93164062 C45.34349936 83.43125316 43.64599607 83.36435633 40.9375 83.3125 C39.62072266 83.30669922 39.62072266 83.30669922 38.27734375 83.30078125 C36 83 36 83 34 81 C33.82446581 77.91475061 33.76877203 74.92035798 33.8046875 71.8359375 C33.8075174 70.92872955 33.81034729 70.02152161 33.81326294 69.08682251 C33.82447847 66.18274877 33.84958537 63.27898088 33.875 60.375 C33.88502803 58.40885861 33.89415419 56.4427124 33.90234375 54.4765625 C33.92442228 49.65092341 33.95896135 44.8255136 34 40 C32.09248726 42.46011545 30.42985563 44.87644034 28.9921875 47.63671875 C28.47205078 48.62575195 28.47205078 48.62575195 27.94140625 49.63476562 C27.58949219 50.31216797 27.23757813 50.98957031 26.875 51.6875 C23.12133072 58.87866928 23.12133072 58.87866928 22 60 C16.98932384 60.75160142 16.98932384 60.75160142 14 60 C11.62635931 57.73938982 10.46690769 54.89862837 9 52 C7.78805236 49.73012759 6.57031118 47.46334171 5.34765625 45.19921875 C5.02478638 44.60089233 4.7019165 44.00256592 4.3692627 43.3861084 C3.58005614 41.92377656 2.79010454 40.46184685 2 39 C2.02356567 40.89274658 2.02356567 40.89274658 2.04760742 42.82373047 C2.10180307 47.49391323 2.13631221 52.16406807 2.16479492 56.83447266 C2.17990526 58.85795766 2.20039437 60.8814098 2.22631836 62.90478516 C2.26260328 65.80900165 2.27970355 68.71278615 2.29296875 71.6171875 C2.30845261 72.52556366 2.32393646 73.43393982 2.33988953 74.36984253 C2.34022942 75.63092331 2.34022942 75.63092331 2.34057617 76.91748047 C2.34723801 77.65916473 2.35389984 78.400849 2.36076355 79.16500854 C2.24171158 79.77055573 2.12265961 80.37610291 2 81 C-1.122002 83.08133467 -1.93266989 83.2737822 -5.5 83.25 C-6.66015625 83.25773437 -6.66015625 83.25773437 -7.84375 83.265625 C-10 83 -10 83 -13 81 C-13.28660203 78.45647517 -13.37857678 76.15713036 -13.34057617 73.61279297 C-13.34101425 72.85172241 -13.34145233 72.09065186 -13.34190369 71.30651855 C-13.33980959 68.78481607 -13.31645001 66.26377417 -13.29296875 63.7421875 C-13.28737499 61.99627038 -13.28310385 60.25034856 -13.28010559 58.50442505 C-13.26863948 53.9044296 -13.23915727 49.30471737 -13.20599365 44.70483398 C-13.17533071 40.01289705 -13.16160835 35.32091445 -13.14648438 30.62890625 C-13.11428913 21.41914625 -13.06307159 12.20959666 -13 3 C-4.30147059 -0.86029412 -4.30147059 -0.86029412 0 0 Z " fill="#6BA101" transform="translate(808,1035)"/>
<path d="M0 0 C3.37926852 0.70803721 5.02139961 1.96331366 7.1875 4.625 C12.94149706 13.67624306 15.81910998 23.51576386 17.9375 33.9375 C18.43730367 36.30240051 18.93864903 38.66697563 19.44140625 41.03125 C19.69422363 42.23007813 19.94704102 43.42890625 20.20751953 44.6640625 C20.99705552 48.29894417 21.84379579 51.91509614 22.71484375 55.53125 C22.99271729 56.69060059 23.27059082 57.84995117 23.55688477 59.04443359 C24.08795932 61.24702211 24.62581624 63.44799045 25.17163086 65.64697266 C26.60971853 71.67853551 27.56190699 77.10654947 27 83.3125 C23.74917327 85.47971782 22.70767847 85.58471018 18.9375 85.5625 C18.05964844 85.56765625 17.18179687 85.5728125 16.27734375 85.578125 C14 85.3125 14 85.3125 12 83.3125 C11.40576172 80.97412109 11.40576172 80.97412109 10.9296875 78.0859375 C10.69354736 76.6925415 10.69354736 76.6925415 10.45263672 75.27099609 C10.2620166 74.08844238 10.07139648 72.90588867 9.875 71.6875 C9.25625 67.93375 8.6375 64.18 8 60.3125 C0.08 60.3125 -7.84 60.3125 -16 60.3125 C-17.44353662 67.74232151 -17.44353662 67.74232151 -18.84057617 75.1809082 C-19.1263855 76.57055786 -19.1263855 76.57055786 -19.41796875 77.98828125 C-19.60125732 78.93614502 -19.7845459 79.88400879 -19.97338867 80.8605957 C-21.31980438 84.0763039 -22.88096192 84.8829659 -26 86.3125 C-28.16796875 86.23828125 -28.16796875 86.23828125 -30.1875 85.625 C-30.86167969 85.43550781 -31.53585937 85.24601562 -32.23046875 85.05078125 C-34 84.3125 -34 84.3125 -36 82.3125 C-38.10720899 60.97700903 -21.64581174 22.83956335 -10 5.3125 C-7.16292797 2.33771075 -4.36838246 -0.5551486 0 0 Z M-2 21.3125 C-3.12752649 23.54041998 -4.25208139 25.76975887 -5.375 28 C-5.69210937 28.62583984 -6.00921875 29.25167969 -6.3359375 29.89648438 C-9.78006343 36.31000437 -9.78006343 36.31000437 -11 43.3125 C-5.39 43.3125 0.22 43.3125 6 43.3125 C4.86726063 35.94969407 3.50270906 28.96217423 0 22.3125 C-0.66 21.9825 -1.32 21.6525 -2 21.3125 Z " fill="#6BA101" transform="translate(1133,1032.6875)"/>
<path d="M0 0 C3.05168367 2.3581192 4.68400121 4.28900272 6.25 7.8125 C5.84676156 12.95379005 2.50659528 15.43823102 -1 19 C-8.01567959 26.53656641 -8.01567959 26.53656641 -14.6875 34.375 C-15.16574219 34.96023438 -15.64398438 35.54546875 -16.13671875 36.1484375 C-17.41733294 38.89509418 -16.99807872 40.14130539 -16 43 C-14.52917192 45.49348748 -12.85068952 47.80289654 -11.125 50.125 C-10.67769531 50.74503906 -10.23039062 51.36507813 -9.76953125 52.00390625 C-7.25664725 55.45828195 -7.25664725 55.45828195 -4.34716797 58.57373047 C-3 60 -3 60 -3 62 C-2.34 62 -1.68 62 -1 62 C0.88151256 63.86760976 2.53727126 65.8806639 4.2421875 67.91015625 C5.60528734 69.53073051 7.03957443 71.09155315 8.5 72.625 C10 75 10 75 10 78.0625 C8.84365414 81.45926598 7.89441782 82.88785727 5 85 C2.0625 86.0625 2.0625 86.0625 -1 86 C-10.29888723 77.62484329 -18.7523669 66.83042414 -25 56 C-25 55.34 -25 54.68 -25 54 C-25.99 54 -26.98 54 -28 54 C-27.98428955 54.80219971 -27.9685791 55.60439941 -27.95239258 56.4309082 C-27.89011417 60.05803404 -27.85103136 63.68504749 -27.8125 67.3125 C-27.78736328 68.57513672 -27.76222656 69.83777344 -27.73632812 71.13867188 C-27.72666016 72.34716797 -27.71699219 73.55566406 -27.70703125 74.80078125 C-27.6913208 75.91622314 -27.67561035 77.03166504 -27.65942383 78.1809082 C-28 81 -28 81 -29.36767578 82.86474609 C-31.64855249 84.45105729 -33.31020577 84.36519488 -36.0625 84.3125 C-37.37927734 84.30669922 -37.37927734 84.30669922 -38.72265625 84.30078125 C-41 84 -41 84 -43 82 C-43.16470589 78.99721174 -43.20654304 76.08739516 -43.16015625 73.0859375 C-43.15472809 72.17553711 -43.14929993 71.26513672 -43.14370728 70.32714844 C-43.12510985 67.3429719 -43.09373077 64.35906865 -43.0625 61.375 C-43.03159961 57.27085558 -43.00938482 53.16672371 -42.9921875 49.0625 C-42.98763046 48.03748383 -42.98307343 47.01246765 -42.9783783 45.95639038 C-42.96457299 39.63003759 -43.06717948 33.32121073 -43.3203125 27 C-43.34981491 26.25158844 -43.37931732 25.50317688 -43.40971375 24.73208618 C-43.55188187 21.2733604 -43.71749566 17.81719741 -43.90844727 14.36083984 C-43.96315186 13.15637207 -44.01785645 11.9519043 -44.07421875 10.7109375 C-44.13182373 9.67243652 -44.18942871 8.63393555 -44.2487793 7.56396484 C-44 5 -44 5 -42.64379883 3.16796875 C-40.37614129 1.55672953 -38.75897291 1.60036631 -36 1.625 C-35.13375 1.61726563 -34.2675 1.60953125 -33.375 1.6015625 C-31 2 -31 2 -29.203125 3.07421875 C-27.33289121 6.06780726 -27.68005447 8.70071531 -27.75 12.1875 C-27.76095703 12.85789307 -27.77191406 13.52828613 -27.78320312 14.21899414 C-27.88703485 18.87731398 -28.24984202 23.40528236 -29 28 C-26.00368265 25.14984447 -23.57649627 22.18434199 -21.1875 18.8125 C-6.59009838 -1.48277214 -6.59009838 -1.48277214 0 0 Z " fill="#6BA101" transform="translate(483,1034)"/>
<path d="M0 0 C0.7734375 0.00386719 1.546875 0.00773437 2.34375 0.01171875 C4.5 0.3125 4.5 0.3125 7.5 2.3125 C7.84057617 4.13594055 7.84057617 4.13594055 7.79296875 6.37231445 C7.78305908 7.21111649 7.77314941 8.04991852 7.76293945 8.91413879 C7.72559692 10.28115181 7.72559692 10.28115181 7.6875 11.67578125 C7.67614014 12.61874557 7.66478027 13.5617099 7.65307617 14.5332489 C7.60414392 18.57026391 7.52076651 22.60636956 7.43847656 26.64282227 C6.35358631 47.18589187 6.35358631 47.18589187 14.5 65.3125 C17.78082827 68.59332827 20.91021845 69.15145503 25.5 69.3125 C28.28307606 67.97707328 28.28307606 67.97707328 30.5 66.3125 C31.16 66.3125 31.82 66.3125 32.5 66.3125 C33.94442842 63.55495483 35.08452049 60.82941977 36.0625 57.875 C36.31128906 57.13378906 36.56007813 56.39257812 36.81640625 55.62890625 C38.01574966 51.56484545 38.6256204 47.79248085 38.56591797 43.55395508 C38.55615936 42.63983353 38.54640076 41.72571198 38.53634644 40.78388977 C38.52177399 39.80977646 38.50720154 38.83566315 38.4921875 37.83203125 C38.47468333 35.76107251 38.4577739 33.69010866 38.44140625 31.61914062 C38.41034065 28.35996454 38.37466148 25.10104188 38.32861328 21.84204102 C38.28645654 18.69283796 38.26289453 15.54393823 38.2421875 12.39453125 C38.22356659 11.41434525 38.20494568 10.43415924 38.1857605 9.42427063 C38.18057907 8.06727303 38.18057907 8.06727303 38.17529297 6.68286133 C38.16561493 5.88519852 38.15593689 5.08753571 38.14596558 4.26570129 C38.26279694 3.62114487 38.3796283 2.97658844 38.5 2.3125 C41.622002 0.23116533 42.43266989 0.0387178 46 0.0625 C46.7734375 0.05734375 47.546875 0.0521875 48.34375 0.046875 C50.5 0.3125 50.5 0.3125 53.5 2.3125 C53.85644531 4.14648438 53.85644531 4.14648438 53.828125 6.40625 C53.82184082 7.68508057 53.82184082 7.68508057 53.81542969 8.98974609 C53.78304199 10.38700928 53.78304199 10.38700928 53.75 11.8125 C53.73614258 12.7813916 53.72228516 13.7502832 53.70800781 14.74853516 C53.67275686 16.84064578 53.62912862 18.93262819 53.578125 21.02441406 C53.4991814 24.34695299 53.45271385 27.66905391 53.40625 30.9921875 C53.07668009 47.75631037 52.45909229 64.59223017 41.5 78.3125 C34.78817087 84.21936314 29.01778513 85.63992743 20.24609375 85.5234375 C13.31247266 84.99084072 8.09631871 81.26889898 3.5 76.3125 C-8.12574133 61.96110639 -7.22006811 42.06154494 -7.453125 24.62597656 C-7.49562551 21.6217221 -7.57016597 18.62044423 -7.65625 15.6171875 C-7.68947125 13.99483083 -7.7208798 12.37243546 -7.75 10.75 C-7.7715918 10.02498291 -7.79318359 9.29996582 -7.81542969 8.55297852 C-7.83332093 5.74233256 -7.79347981 3.77500932 -6.265625 1.3671875 C-4.03361997 0.03391016 -2.58998456 -0.05611633 0 0 Z " fill="#6BA101" transform="translate(520.5,1035.6875)"/>
<path d="M0 0 C0.86367188 -0.02835938 1.72734375 -0.05671875 2.6171875 -0.0859375 C5.99942702 0.53572023 7.14901774 1.58264948 9.125 4.375 C9.296875 7.0625 9.296875 7.0625 8.875 10.375 C8.09557076 18.10234146 7.9260525 25.79843574 7.875 33.5625 C7.85405273 34.73748047 7.83310547 35.91246094 7.81152344 37.12304688 C7.76986453 47.02675802 8.49101043 57.5348305 15.125 65.375 C17.94499535 68.01306017 20.24239935 69.19441392 24.125 69.375 C29.29744393 67.74159665 32.25264846 65.99127926 35.125 61.375 C38.99400679 53.13384204 39.26365702 45.0925109 39.15234375 36.13671875 C39.13971124 34.16341312 39.12734929 32.19010575 39.11523438 30.21679688 C39.09030675 27.124537 39.06217723 24.0323689 39.02905273 20.94018555 C38.99898572 17.94319041 38.98113052 14.94631582 38.96484375 11.94921875 C38.95138412 11.01905441 38.9379245 10.08889008 38.92405701 9.13053894 C38.92067825 8.27237076 38.9172995 7.41420258 38.91381836 6.5300293 C38.90263222 5.39587837 38.90263222 5.39587837 38.89122009 4.23881531 C39.125 2.375 39.125 2.375 41.125 0.375 C43.40234375 0.109375 43.40234375 0.109375 46.0625 0.125 C46.93777344 0.11984375 47.81304688 0.1146875 48.71484375 0.109375 C51.125 0.375 51.125 0.375 54.125 2.375 C54.38807285 5.10281491 54.44972274 7.58693926 54.375 10.3125 C54.36186768 11.13645264 54.34873535 11.96040527 54.33520508 12.80932617 C54.30070143 14.64811809 54.25762423 16.48676236 54.20751953 18.32519531 C54.15011682 20.44671797 54.102325 22.5685135 54.06201172 24.69042969 C53.55450058 51.31408823 53.55450058 51.31408823 50.125 62.375 C49.85945312 63.27734375 49.59390625 64.1796875 49.3203125 65.109375 C46.4420439 73.51493818 40.95501375 80.13909092 33.125 84.375 C26.24293053 86.53793612 18.66138856 86.01827536 12.01171875 83.421875 C2.86995267 78.34942509 -1.40930654 69.01217694 -4.25 59.3125 C-7.0976154 47.62495892 -6.72468691 35.327482 -6.875 23.375 C-6.89546387 22.30668945 -6.91592773 21.23837891 -6.93701172 20.13769531 C-6.99310269 17.19593255 -7.03259135 14.25463463 -7.0625 11.3125 C-7.07571289 10.43247314 -7.08892578 9.55244629 -7.10253906 8.64575195 C-7.10505985 6.5541272 -7.00031462 4.46286894 -6.875 2.375 C-4.38459058 -0.11540942 -3.44345643 0.05108986 0 0 Z " fill="#6BA101" transform="translate(883.875,1035.625)"/>
<path d="M0 0 C1.37899979 0.00666183 1.37899979 0.00666183 2.78585815 0.01345825 C3.82678619 0.01360931 4.86771423 0.01376038 5.94018555 0.01391602 C7.63085648 0.02939987 7.63085648 0.02939987 9.35568237 0.04519653 C10.50704681 0.04802643 11.65841125 0.05085632 12.84466553 0.05377197 C16.533338 0.06499496 20.22177041 0.09010347 23.91036987 0.11550903 C26.40646012 0.12553609 28.90255417 0.13466241 31.39865112 0.14285278 C37.52763971 0.1649412 43.65648765 0.19843957 49.78536987 0.24050903 C50.31992762 1.66298583 50.83913447 3.09123788 51.35177612 4.52175903 C51.64254028 5.31646606 51.93330444 6.1111731 52.23287964 6.92996216 C52.78536987 9.24050903 52.78536987 9.24050903 51.72286987 12.74050903 C49.51412751 15.59049917 49.20118406 15.73801736 45.78536987 16.24050903 C43.19163073 16.30949146 40.6272679 16.33485655 38.03536987 16.30300903 C37.33798706 16.29849731 36.64060425 16.2939856 35.92208862 16.28933716 C34.20981185 16.27760924 32.49757954 16.25967556 30.78536987 16.24050903 C30.81415474 17.39562737 30.81415474 17.39562737 30.84352112 18.57408142 C31.02157485 25.82794035 31.18499886 33.08191088 31.33195782 40.33646107 C31.40803005 44.06619351 31.48977354 47.79562242 31.58444214 51.52493286 C31.67557845 55.12329221 31.75186397 58.72168699 31.8178196 62.32059288 C31.84561195 63.69423875 31.8787732 65.06778673 31.91736412 66.44117165 C31.97046061 68.36328417 32.00278297 70.28593671 32.03414917 72.20852661 C32.0585759 73.30328812 32.08300262 74.39804962 32.10816956 75.52598572 C31.78536987 78.24050903 31.78536987 78.24050903 30.41825867 80.09040833 C28.16190455 81.67963747 26.52456418 81.67393285 23.78536987 81.67800903 C22.91911987 81.69734497 22.05286987 81.71668091 21.16036987 81.73660278 C18.78536987 81.24050903 18.78536987 81.24050903 17.15248108 79.58786011 C15.40099297 76.58052795 15.45774715 74.655909 15.53659058 71.1867981 C15.55683792 69.96583435 15.57708527 68.74487061 15.59794617 67.48690796 C15.6353038 66.17325256 15.67266144 64.85959717 15.71115112 63.50613403 C15.73919759 62.14424281 15.76588659 60.78232301 15.79127502 59.42037964 C15.86160798 55.84270858 15.95034389 52.26572301 16.04293823 48.68856812 C16.13423086 45.03554416 16.20808645 41.38217209 16.28341675 37.72879028 C16.43368518 30.56557575 16.60339981 23.4029958 16.78536987 16.24050903 C15.67677612 16.2521106 14.56818237 16.26371216 13.42599487 16.27566528 C11.96245489 16.28504695 10.49891309 16.29414675 9.03536987 16.30300903 C8.3057605 16.31138794 7.57615112 16.31976685 6.82443237 16.32839966 C0.08785057 16.35902048 0.08785057 16.35902048 -3.21463013 15.24050903 C-5.98687962 10.88411697 -5.16555172 7.07436044 -4.21463013 2.24050903 C-2.21463013 0.24050903 -2.21463013 0.24050903 0 0 Z " fill="#6BA101" transform="translate(601.2146301269531,1036.7594909667969)"/>
<path d="M0 0 C1.03454819 -0.00637985 2.06909637 -0.0127597 3.13499451 -0.01933289 C4.26099564 -0.02044571 5.38699677 -0.02155853 6.54711914 -0.02270508 C7.69515518 -0.02603348 8.84319122 -0.02936188 10.02601624 -0.03279114 C12.45972288 -0.03786534 14.89343651 -0.04019931 17.32714844 -0.04003906 C21.06269731 -0.04222487 24.79795074 -0.06037379 28.53344727 -0.0793457 C30.89217021 -0.08227958 33.25089456 -0.08426441 35.60961914 -0.08520508 C36.73359604 -0.09239059 37.85757294 -0.09957611 39.01560974 -0.10697937 C40.05331009 -0.10390274 41.09101044 -0.10082611 42.16015625 -0.09765625 C43.07647324 -0.09908127 43.99279022 -0.10050629 44.93687439 -0.10197449 C47.14477539 0.14526367 47.14477539 0.14526367 49.14477539 2.14526367 C50.18684437 6.74773499 50.62509421 10.01139898 48.14477539 14.14526367 C44.55649808 16.63210334 41.15068602 16.34907683 36.89477539 16.27026367 C35.63149414 16.2522168 34.36821289 16.23416992 33.06665039 16.21557617 C32.10243164 16.19237305 31.13821289 16.16916992 30.14477539 16.14526367 C28.80619174 18.82243097 29.04676426 20.83542217 29.07885742 23.83251953 C29.08861603 25.02393051 29.09837463 26.21534149 29.10842896 27.44285583 C29.1230014 28.73554886 29.13757385 30.02824188 29.15258789 31.36010742 C29.16207011 32.69527103 29.17067445 34.03044113 29.17843628 35.36561584 C29.21206486 41.04188997 29.25369787 46.71800738 29.31616211 52.39404297 C29.35379706 55.8652208 29.37682879 59.33623718 29.3904686 62.80758858 C29.40244857 64.77473026 29.43063671 66.74175151 29.45901489 68.70872498 C29.46419632 70.50056969 29.46419632 70.50056969 29.46948242 72.32861328 C29.47916046 73.38181259 29.4888385 74.4350119 29.49880981 75.52012634 C29.14477539 78.14526367 29.14477539 78.14526367 27.7729187 79.98170471 C25.52123144 81.59088179 23.89070469 81.57867747 21.14477539 81.58276367 C20.27852539 81.60209961 19.41227539 81.62143555 18.51977539 81.64135742 C16.14477539 81.14526367 16.14477539 81.14526367 14.50097656 79.6394043 C12.55073069 76.05277751 12.88268213 72.70421099 13.07055664 68.74291992 C13.11028595 67.5030558 13.11028595 67.5030558 13.15081787 66.23814392 C13.23915633 63.56067054 13.3483348 60.88447018 13.45727539 58.20776367 C13.55158472 55.47483473 13.64034659 52.74176227 13.72874451 50.00863647 C13.78718359 48.21156124 13.84736457 46.41454177 13.90931702 44.61758423 C14.14142439 37.79225032 14.24391007 30.97483728 14.20727539 24.14526367 C14.2031665 23.29971924 14.19905762 22.4541748 14.19482422 21.58300781 C14.18282794 19.77038936 14.16476673 17.95781158 14.14477539 16.14526367 C12.24791992 16.21487305 12.24791992 16.21487305 10.31274414 16.28588867 C8.65261148 16.32340579 6.99245331 16.35980602 5.33227539 16.39526367 C4.08220703 16.44553711 4.08220703 16.44553711 2.80688477 16.49682617 C-3.36676833 16.59600132 -3.36676833 16.59600132 -5.87866211 14.27807617 C-7.66682372 10.37273121 -8.11645953 8.11556482 -6.98022461 3.89526367 C-5.2384146 -0.36249413 -4.43949578 0.01848396 0 0 Z " fill="#6BA101" transform="translate(682.855224609375,1036.854736328125)"/>
<path d="M0 0 C0.86625 -0.02835938 1.7325 -0.05671875 2.625 -0.0859375 C5 0.375 5 0.375 6.64379883 2.05639648 C8.33972094 4.95579743 8.27098977 6.59784343 8.07421875 9.93359375 C8.01927246 11.0316333 7.96432617 12.12967285 7.90771484 13.26098633 C7.83504395 14.43298584 7.76237305 15.60498535 7.6875 16.8125 C7.56605327 19.26287606 7.44759638 21.71340201 7.33203125 24.1640625 C7.27225098 25.38254883 7.2124707 26.60103516 7.15087891 27.85644531 C6.93883042 32.8014984 6.87360339 37.7383944 6.875 42.6875 C6.87072998 43.46601318 6.86645996 44.24452637 6.86206055 45.04663086 C6.87784502 52.17895605 7.4402832 59.26761667 8 66.375 C8.92337158 66.37910889 9.84674316 66.38321777 10.7980957 66.38745117 C14.22613076 66.41442998 17.65236962 66.46350542 21.07983398 66.52758789 C22.56279477 66.55077689 24.04592045 66.56516581 25.52905273 66.57055664 C27.66234178 66.57984113 29.79303474 66.62080821 31.92578125 66.66796875 C33.20880127 66.6836792 34.49182129 66.69938965 35.8137207 66.71557617 C39 67.375 39 67.375 40.92260742 69.69262695 C42.29756119 73.11583497 42.33870263 75.71701155 42 79.375 C40 82.375 40 82.375 38.328125 83.08984375 C35.0749027 83.4883089 32.01772635 83.19699592 28.75 82.9375 C20.13821283 82.30504481 11.5672232 82.33040572 2.93652344 82.50024414 C1.94942383 82.51176514 0.96232422 82.52328613 -0.0546875 82.53515625 C-0.93624512 82.55199463 -1.81780273 82.56883301 -2.72607422 82.58618164 C-5 82.375 -5 82.375 -8 80.375 C-8.30252083 77.84316017 -8.4095912 75.55425571 -8.38818359 73.01953125 C-8.39344055 72.26167328 -8.39869751 71.50381531 -8.40411377 70.72299194 C-8.41734755 68.21095334 -8.40856409 65.69954535 -8.3984375 63.1875 C-8.40045727 61.4463692 -8.4033679 59.70523922 -8.40713501 57.96411133 C-8.41156293 54.31225543 -8.40511237 50.66061943 -8.39111328 47.00878906 C-8.37402103 42.32083128 -8.38385972 37.6333887 -8.40183067 32.94544983 C-8.41265595 29.34928484 -8.40922798 25.7532426 -8.4014473 22.15707397 C-8.3994418 20.42825256 -8.40191676 18.6994201 -8.40888596 16.97061157 C-8.41647998 14.55692908 -8.40492591 12.14408832 -8.38818359 9.73046875 C-8.39425629 9.01144379 -8.40032898 8.29241882 -8.40658569 7.55160522 C-8.38095093 5.56323242 -8.38095093 5.56323242 -8 2.375 C-4.80254858 0.24336572 -3.71242084 0.05524436 0 0 Z " fill="#6BA101" transform="translate(1035,1035.625)"/>
<path d="M0 0 C0.86625 0.00386719 1.7325 0.00773437 2.625 0.01171875 C5 0.3125 5 0.3125 8 2.3125 C8.36076355 4.98269653 8.36076355 4.98269653 8.34057617 8.41455078 C8.34034958 9.69572784 8.34012299 10.97690491 8.33988953 12.29690552 C8.32456841 13.7005447 8.3089204 15.10418034 8.29296875 16.5078125 C8.28737438 17.93984535 8.28310353 19.37188393 8.28010559 20.80392456 C8.26864413 24.57537656 8.23916624 28.34648265 8.20599365 32.11779785 C8.1753205 35.96520304 8.16160618 39.81266406 8.14648438 43.66015625 C8.11429738 51.2110953 8.06308584 58.76174921 8 66.3125 C8.92337158 66.3218457 9.84674316 66.33119141 10.7980957 66.34082031 C14.22594506 66.38484734 17.65254051 66.44646107 21.07983398 66.52001953 C22.56278942 66.54823541 24.04589543 66.56944702 25.52905273 66.58349609 C27.66207997 66.6049192 29.79329606 66.65155782 31.92578125 66.703125 C33.20880127 66.72407227 34.49182129 66.74501953 35.8137207 66.76660156 C39 67.3125 39 67.3125 40.89135742 69.16699219 C42.83454232 72.92755349 43.29355851 75.99148669 42.375 80.125 C41 82.3125 41 82.3125 38.9375 83.125 C30.46015692 83.666107 22.26400675 82.90991559 13.84570312 81.93554688 C12.99041016 81.84208984 12.13511719 81.74863281 11.25390625 81.65234375 C10.48377197 81.56331787 9.7136377 81.47429199 8.92016602 81.38256836 C6.91400184 81.15569375 6.91400184 81.15569375 5 82.3125 C2.94140625 82.48046875 2.94140625 82.48046875 0.5625 82.5 C-0.61119141 82.52126953 -0.61119141 82.52126953 -1.80859375 82.54296875 C-4 82.3125 -4 82.3125 -7 80.3125 C-7.25686019 77.43721089 -7.32294917 74.77922917 -7.2578125 71.90625 C-7.25096939 71.04580078 -7.24412628 70.18535156 -7.23707581 69.29882812 C-7.2127761 66.46975428 -7.16877392 63.64133361 -7.125 60.8125 C-7.08375991 56.895884 -7.05391985 52.97924067 -7.02734375 49.0625 C-7.01969498 48.07560181 -7.0120462 47.08870361 -7.00416565 46.07189941 C-6.96912537 39.70652099 -7.07203438 33.36061022 -7.31640625 27 C-7.3461554 26.21016724 -7.37590454 25.42033447 -7.40655518 24.60656738 C-7.55155513 20.8984197 -7.71901262 17.19244143 -7.90869141 13.48632812 C-7.96331543 12.18115234 -8.01793945 10.87597656 -8.07421875 9.53125 C-8.13182373 8.39623047 -8.18942871 7.26121094 -8.2487793 6.09179688 C-8 3.3125 -8 3.3125 -6.64379883 1.4465332 C-4.36787962 -0.12359077 -2.74161199 -0.05303714 0 0 Z " fill="#6BA101" transform="translate(965,1035.6875)"/>
<path d="M0 0 C0.86625 -0.03996094 1.7325 -0.07992188 2.625 -0.12109375 C5 0.4375 5 0.4375 6.83203125 2.41796875 C8.39349599 6.45479899 8.05612046 9.96838957 7.6875 14.1875 C7.03865204 23.85900738 6.8661479 33.49866858 6.875 43.1875 C6.87476837 43.90333252 6.87453674 44.61916504 6.8742981 45.35668945 C6.87841884 54.73496265 7.08964271 64.04840318 7.9765625 73.390625 C8.0014046 76.6200979 7.45140965 78.57644789 6 81.4375 C4.34346314 83.09403686 2.39349204 82.60856165 0.125 82.625 C-0.75929688 82.63917969 -1.64359375 82.65335938 -2.5546875 82.66796875 C-5 82.4375 -5 82.4375 -8 80.4375 C-8.30252083 77.90566017 -8.4095912 75.61675571 -8.38818359 73.08203125 C-8.39344055 72.32417328 -8.39869751 71.56631531 -8.40411377 70.78549194 C-8.41734755 68.27345334 -8.40856409 65.76204535 -8.3984375 63.25 C-8.40045727 61.5088692 -8.4033679 59.76773922 -8.40713501 58.02661133 C-8.41156293 54.37475543 -8.40511237 50.72311943 -8.39111328 47.07128906 C-8.37402103 42.38333128 -8.38385972 37.6958887 -8.40183067 33.00794983 C-8.41265595 29.41178484 -8.40922798 25.8157426 -8.4014473 22.21957397 C-8.3994418 20.49075256 -8.40191676 18.7619201 -8.40888596 17.03311157 C-8.41647998 14.61942908 -8.40492591 12.20658832 -8.38818359 9.79296875 C-8.39425629 9.07394379 -8.40032898 8.35491882 -8.40658569 7.61410522 C-8.38095093 5.62573242 -8.38095093 5.62573242 -8 2.4375 C-4.8233834 0.3197556 -3.69228613 0.09340605 0 0 Z " fill="#6BA101" transform="translate(764,1035.5625)"/>
<path d="M0 0 C3.10322311 2.39175245 4.76376754 5.29130262 6 9 C6.3684431 14.61875724 6.19190228 18.15711379 3 23 C-0.21801132 26.40189769 -3.15080824 27.77734898 -7.8671875 28.171875 C-11.66196138 27.86606905 -14.99410479 26.30876739 -18 24 C-19.62141925 19.13574226 -19.95779193 13.80570571 -18.28125 8.89453125 C-16.22395919 5.00392887 -13.93937137 2.86601802 -10 1 C-6.76313815 -0.61843092 -3.48624071 -0.72129118 0 0 Z M-8 7 C-7.67958603 9.60280568 -7.67958603 9.60280568 -7 12 C-5.02 11.67 -3.04 11.34 -1 11 C-0.61781233 9.34385343 -0.28604898 7.67542976 0 6 C-1.05310277 4.72996677 -1.05310277 4.72996677 -3.4375 4.8125 C-6.16734675 4.73160017 -6.16734675 4.73160017 -8 7 Z M-2 14 C-2 15.32 -2 16.64 -2 18 C-1.01 17.67 -0.02 17.34 1 17 C1 16.01 1 15.02 1 14 C0.01 14 -0.98 14 -2 14 Z " fill="#6BA101" transform="translate(649,536)"/>
<path d="M0 0 C5.05783285 0.09292606 8.43140964 0.79570341 12.8125 3.3125 C15.28184085 7.01651128 15.26178433 10.01837865 14.8125 14.3125 C13.8125 16.8125 13.8125 16.8125 12.8125 18.3125 C12.1525 18.3125 11.4925 18.3125 10.8125 18.3125 C11.10125 18.86679688 11.39 19.42109375 11.6875 19.9921875 C12.244375 21.07886719 12.244375 21.07886719 12.8125 22.1875 C13.18375 22.90679688 13.555 23.62609375 13.9375 24.3671875 C14.8125 26.3125 14.8125 26.3125 14.8125 28.3125 C12.5625 28.6875 12.5625 28.6875 9.8125 28.3125 C9.173125 27.343125 8.53375 26.37375 7.875 25.375 C6.09336854 22.00720526 6.09336854 22.00720526 2.5625 21.4375 C1.655 21.39625 0.7475 21.355 -0.1875 21.3125 C-0.8475 23.6225 -1.5075 25.9325 -2.1875 28.3125 C-3.8375 27.9825 -5.4875 27.6525 -7.1875 27.3125 C-7.24534708 23.18755849 -7.28104407 19.06272056 -7.3125 14.9375 C-7.32925781 13.761875 -7.34601562 12.58625 -7.36328125 11.375 C-7.36972656 10.25351563 -7.37617187 9.13203125 -7.3828125 7.9765625 C-7.39328613 6.93967285 -7.40375977 5.9027832 -7.41455078 4.83447266 C-6.97394084 -0.05961416 -4.24495869 0.01756535 0 0 Z M-1.1875 6.3125 C-1.25929964 7.83178038 -1.27142007 9.35417482 -1.25 10.875 C-1.24097656 11.70128906 -1.23195313 12.52757812 -1.22265625 13.37890625 C-1.21105469 14.01699219 -1.19945312 14.65507813 -1.1875 15.3125 C2.33294638 16.48598213 4.23710821 16.14929382 7.8125 15.3125 C10.02107238 13.48463728 10.02107238 13.48463728 10.25 10.875 C10.06643842 8.12221148 10.06643842 8.12221148 7.625 6.5 C4.85428301 5.33014172 1.25585484 3.86914516 -1.1875 6.3125 Z " fill="#6BA101" transform="translate(749.1875,1145.6875)"/>
<path d="M0 0 C5.63143448 0.10140638 9.85714817 0.9241785 14.375 4.375 C17.84961278 8.29794991 18.66554058 13.2333121 18.375 18.375 C17.18177344 22.04646633 15.17632889 24.6465192 12.3125 27.25 C6.21079817 29.58682198 -0.29093068 29.88966875 -6.625 28.375 C-7.74958963 22.94098293 -7.80852105 17.64778667 -7.8125 12.125 C-7.82474609 11.21492188 -7.83699219 10.30484375 -7.84960938 9.3671875 C-7.85154297 8.49835938 -7.85347656 7.62953125 -7.85546875 6.734375 C-7.85957764 5.94514648 -7.86368652 5.15591797 -7.86791992 4.34277344 C-7.29250109 -0.31840828 -3.88178934 0.04913657 0 0 Z M-1.625 6.375 C-1.65184312 9.18756281 -1.67176188 11.99987241 -1.6875 14.8125 C-1.69587891 15.61494141 -1.70425781 16.41738281 -1.71289062 17.24414062 C-1.7215143 19.28795221 -1.6772815 21.33183902 -1.625 23.375 C-0.63356029 24.59535632 -0.63356029 24.59535632 1.30078125 24.4296875 C6.60027979 24.05644101 6.60027979 24.05644101 10.875 21.0625 C12.7127324 17.88044087 12.7127324 17.88044087 13.375 14.375 C12.3867896 10.99861445 11.33937389 8.35124926 8.375 6.375 C3.28841591 5.1693346 3.28841591 5.1693346 -1.625 6.375 Z " fill="#6BA101" transform="translate(1099.625,1145.625)"/>
<path d="M0 0 C4.25167995 3.17329127 6.12555882 6.42535241 6.91796875 11.6640625 C6.9730419 16.92354789 4.72826721 20.06058551 1.25390625 23.77734375 C-2.64320998 26.27738058 -5.45057757 27.20538543 -10.05859375 26.90234375 C-15.28852323 25.33336491 -18.03526296 23.43733994 -21.05859375 18.90234375 C-23.0430527 14.93342584 -22.7342187 10.03096933 -21.41015625 5.859375 C-19.7494837 2.53093301 -18.00542182 0.86898097 -14.87109375 -1.09765625 C-9.46277964 -2.51623044 -5.03206258 -2.68313014 0 0 Z M-14.05859375 4.90234375 C-16.46623972 7.22696745 -17.00741477 8.50144177 -17.43359375 11.83984375 C-16.92114052 16.02487848 -15.64754606 18.65388122 -12.30859375 21.27734375 C-8.95986578 22.20754596 -6.40952871 21.69438292 -3.05859375 20.90234375 C-1.01191183 19.32388859 -0.18109381 18.29405054 0.59375 15.81640625 C1.09646511 11.78091238 1.30049706 9.59179811 -0.62109375 5.90234375 C-5.02859925 2.28592898 -9.13602996 2.10845619 -14.05859375 4.90234375 Z " fill="#6BA101" transform="translate(677.05859375,1148.09765625)"/>
<path d="M0 0 C2.9588795 3.80427365 3.83740084 7.20332488 4 12 C3.22260519 14.82238881 2.18182848 17.30543106 1 20 C0.34 20 -0.32 20 -1 20 C-1 20.66 -1 21.32 -1 22 C-6.58570559 24.24188184 -11.01453915 25.84168026 -17 24 C-21.5814192 20.25156611 -24.72421929 16.52798988 -25.375 10.5625 C-24.82822003 5.36809027 -23.35307169 2.2836834 -19.5625 -1.3125 C-13.37891941 -5.38461405 -5.77175767 -4.61740614 0 0 Z M-18 4 C-19.75189097 7.50378195 -19.68265068 11.18634569 -19 15 C-17.2632231 17.76023472 -16.0104371 18.3579434 -13 20 C-8.26081225 20.24943093 -6.57614408 19.50412607 -3 16.375 C-0.69199439 13.13408865 -0.69199439 13.13408865 -1 9.375 C-2.16698526 5.13237134 -2.16698526 5.13237134 -5 2 C-10.41637659 0.68958631 -13.48758317 0.30802259 -18 4 Z " fill="#6BA101" transform="translate(1077,1150)"/>
<path d="M0 0 C3.39028846 2.80909615 4.90695302 5.633457 5.47265625 10.02734375 C5.71130775 16.26341109 4.24209902 19.36023665 0.25 24.125 C-4.61115222 26.80359408 -9.39618444 26.66269297 -14.8125 25.8125 C-18.31134748 24.1801505 -20.2142315 21.81867884 -22.1875 18.5 C-23.44862425 13.07716572 -23.64580329 9.38982409 -21.0625 4.5 C-15.08433418 -2.64058696 -8.58173387 -3.62339875 0 0 Z M-16.625 7 C-18.20989585 10.75370071 -17.87685104 12.90987951 -16.8125 16.8125 C-14.58966931 20.06125254 -13.19268818 20.70881231 -9.375 21.75 C-5.35087419 21.8205987 -3.84668604 21.41323089 -0.8125 18.8125 C0.88905983 15.95078574 1.1875 14.14121212 1.1875 10.8125 C-0.19063955 6.67808134 -2.2055773 5.17087253 -5.8125 2.8125 C-10.58978263 2.01628623 -13.5741929 3.31799143 -16.625 7 Z " fill="#6BA101" transform="translate(1037.8125,1148.1875)"/>
<path d="M0 0 C1.58206057 0.00667536 3.16410534 0.0186375 4.74609375 0.03515625 C5.55240234 0.03966797 6.35871094 0.04417969 7.18945312 0.04882812 C9.18753131 0.06065107 11.18557158 0.07858711 13.18359375 0.09765625 C13.51359375 1.74765625 13.84359375 3.39765625 14.18359375 5.09765625 C10.13084215 6.08014149 6.34497638 6.17925199 2.18359375 6.09765625 C1.85359375 7.74765625 1.52359375 9.39765625 1.18359375 11.09765625 C4.81359375 11.42765625 8.44359375 11.75765625 12.18359375 12.09765625 C12.51359375 13.41765625 12.84359375 14.73765625 13.18359375 16.09765625 C8.79774046 16.79939278 4.62568732 17.206 0.18359375 17.09765625 C0.18359375 19.07765625 0.18359375 21.05765625 0.18359375 23.09765625 C0.76367188 23.08605469 1.34375 23.07445312 1.94140625 23.0625 C6.48341835 23.01003451 10.71072944 23.18014562 15.18359375 24.09765625 C15.18359375 25.41765625 15.18359375 26.73765625 15.18359375 28.09765625 C12.97604859 28.29421849 10.76749836 28.47951084 8.55859375 28.66015625 C6.71394531 28.81677734 6.71394531 28.81677734 4.83203125 28.9765625 C1.41454346 29.0899909 -1.46989509 28.71042679 -4.81640625 28.09765625 C-4.84526963 23.61850297 -4.86315812 19.13937334 -4.87890625 14.66015625 C-4.88728516 13.38076172 -4.89566406 12.10136719 -4.90429688 10.78320312 C-4.90751953 9.56826172 -4.91074219 8.35332031 -4.9140625 7.1015625 C-4.91929932 5.97564697 -4.92453613 4.84973145 -4.92993164 3.68969727 C-4.74896564 -0.4421651 -4.33493728 0.1109247 0 0 Z " fill="#6BA101" transform="translate(611.81640625,1145.90234375)"/>
<path d="M0 0 C5.91242295 2.95621148 7.85460488 12.32330812 9.9765625 18.07421875 C11.02746038 20.97624322 11.02746038 20.97624322 12.2734375 23.26953125 C13.125 25.0625 13.125 25.0625 13.125 28.0625 C10.8125 28.375 10.8125 28.375 8.125 28.0625 C7.7021875 27.2478125 7.279375 26.433125 6.84375 25.59375 C5.3394965 22.76859975 5.3394965 22.76859975 2.20703125 22.35546875 C1.12808594 22.32066406 0.04914062 22.28585937 -1.0625 22.25 C-2.69251953 22.17845703 -2.69251953 22.17845703 -4.35546875 22.10546875 C-5.18691406 22.09128906 -6.01835938 22.07710937 -6.875 22.0625 C-7.535 24.0425 -8.195 26.0225 -8.875 28.0625 C-10.525 28.0625 -12.175 28.0625 -13.875 28.0625 C-13.24073054 23.89333852 -11.82488628 20.54049763 -10 16.75 C-8.22086854 12.99594749 -6.51605845 9.29004079 -5.125 5.375 C-3.1361465 0.10453822 -3.1361465 0.10453822 0 0 Z M-0.875 9.0625 C-2.91669485 11.96798882 -3.875 13.46392046 -3.875 17.0625 C-1.565 17.0625 0.745 17.0625 3.125 17.0625 C2.60231534 14.29973823 2.01630413 11.7364124 1.125 9.0625 C0.465 9.0625 -0.195 9.0625 -0.875 9.0625 Z " fill="#6BA101" transform="translate(963.875,1145.9375)"/>
<path d="M0 0 C2.598341 0.99699408 3.79644754 1.66588155 5.2644043 4.07543945 C5.61414307 4.91292725 5.96388184 5.75041504 6.32421875 6.61328125 C6.90719727 7.9909668 6.90719727 7.9909668 7.50195312 9.39648438 C7.89318359 10.35876953 8.28441406 11.32105469 8.6875 12.3125 C9.09033203 13.26318359 9.49316406 14.21386719 9.90820312 15.19335938 C11.68929861 19.4626184 13.20599246 23.42641447 14 28 C13.34 28.33 12.68 28.66 12 29 C11.01 28.67 10.02 28.34 9 28 C7.8125 24.9375 7.8125 24.9375 7 22 C-0.29160799 21.69076946 -0.29160799 21.69076946 -6.6875 24.40234375 C-7.90818342 26.20836633 -7.90818342 26.20836633 -9 29 C-10.32 28.67 -11.64 28.34 -13 28 C-11.2071489 22.3226382 -9.20601641 16.74054298 -7.0625 11.1875 C-6.70164307 10.21864868 -6.70164307 10.21864868 -6.33349609 9.23022461 C-4.8082226 5.34416782 -3.17356277 2.72117586 0 0 Z M0 8 C-2.35910353 12.2637281 -2.35910353 12.2637281 -3 17 C-0.36 17 2.28 17 5 17 C3.68 14.03 2.36 11.06 1 8 C0.67 8 0.34 8 0 8 Z " fill="#6BA101" transform="translate(522,1146)"/>
<path d="M0 0 C0.68964844 -0.00386719 1.37929688 -0.00773437 2.08984375 -0.01171875 C7.24666707 -0.00166646 7.24666707 -0.00166646 9.5 1.125 C9.5 2.445 9.5 3.765 9.5 5.125 C4.88 5.455 0.26 5.785 -4.5 6.125 C-4.17 7.775 -3.84 9.425 -3.5 11.125 C0.13 11.455 3.76 11.785 7.5 12.125 C7.5 13.445 7.5 14.765 7.5 16.125 C-0.125 17.125 -0.125 17.125 -3.5 17.125 C-3.83 19.105 -4.16 21.085 -4.5 23.125 C-3.74074219 23.11339844 -2.98148438 23.10179687 -2.19921875 23.08984375 C-1.20535156 23.08082031 -0.21148438 23.07179688 0.8125 23.0625 C1.79863281 23.05089844 2.78476562 23.03929687 3.80078125 23.02734375 C6.5 23.125 6.5 23.125 9.5 24.125 C9.5 25.445 9.5 26.765 9.5 28.125 C6.70865148 28.31925873 3.91716313 28.50569517 1.125 28.6875 C0.3309375 28.74357422 -0.463125 28.79964844 -1.28125 28.85742188 C-7.2734375 29.23828125 -7.2734375 29.23828125 -9.5 28.125 C-9.5 19.215 -9.5 10.305 -9.5 1.125 C-6.46570323 -0.39214839 -3.32398333 -0.01863916 0 0 Z " fill="#6BA101" transform="translate(930.5,1145.875)"/>
<path d="M0 0 C1.875 0.29492188 1.875 0.29492188 4 1 C5.52366537 3.49976349 6.78008398 5.85823041 8 8.5 C8.34740234 9.22525879 8.69480469 9.95051758 9.05273438 10.69775391 C10.05037261 12.79176474 11.02786429 14.89405366 12 17 C12.4640625 17.98742188 12.928125 18.97484375 13.40625 19.9921875 C16 25.64285714 16 25.64285714 16 28 C14.02 28 12.04 28 10 28 C9.505 25.525 9.505 25.525 9 23 C4.71 23 0.42 23 -4 23 C-4.99 25.475 -4.99 25.475 -6 28 C-7.98 28 -9.96 28 -12 28 C-8.90837349 18.2098494 -4.6980318 9.11418168 0 0 Z M1 8 C0.01 10.97 -0.98 13.94 -2 17 C0.64 17 3.28 17 6 17 C5.5504955 15.68445015 5.09010284 14.37261642 4.625 13.0625 C4.24214844 11.96615234 4.24214844 11.96615234 3.8515625 10.84765625 C3.14728587 8.81317884 3.14728587 8.81317884 1 8 Z " fill="#6BA101" transform="translate(818,1146)"/>
<path d="M0 0 C2.125 1.125 2.125 1.125 3.125 3.125 C2.135 4.61 2.135 4.61 1.125 6.125 C-2.505 5.795 -6.135 5.465 -9.875 5.125 C-9.875 6.115 -9.875 7.105 -9.875 8.125 C-9.11574219 8.42792969 -8.35648438 8.73085937 -7.57421875 9.04296875 C-6.08341797 9.67138672 -6.08341797 9.67138672 -4.5625 10.3125 C-3.57636719 10.71855469 -2.59023438 11.12460938 -1.57421875 11.54296875 C1.55021898 13.37422386 2.67931443 14.83006291 4.125 18.125 C3.34791788 22.01041062 2.31174246 24.72622668 -0.875 27.125 C-3.65234375 27.5234375 -3.65234375 27.5234375 -6.8125 27.5 C-7.85277344 27.50773437 -8.89304687 27.51546875 -9.96484375 27.5234375 C-13.15462499 27.08671577 -14.52502307 26.26546092 -16.875 24.125 C-16.545 22.475 -16.215 20.825 -15.875 19.125 C-15.153125 19.434375 -14.43125 19.74375 -13.6875 20.0625 C-10.00785891 21.45258663 -6.80704051 22.125 -2.875 22.125 C-2.875 20.475 -2.875 18.825 -2.875 17.125 C-3.56207031 16.95484375 -4.24914062 16.7846875 -4.95703125 16.609375 C-5.85808594 16.36703125 -6.75914062 16.1246875 -7.6875 15.875 C-8.58082031 15.64296875 -9.47414063 15.4109375 -10.39453125 15.171875 C-13.3014281 13.9450272 -14.30776806 12.83203699 -15.875 10.125 C-16.3125 7.125 -16.3125 7.125 -15.875 4.125 C-11.43675454 -1.34883606 -6.73715213 -2.05043761 0 0 Z " fill="#6BA101" transform="translate(561.875,1146.875)"/>
<path d="M0 0 C0.99 0.66 1.98 1.32 3 2 C2.34 3.32 1.68 4.64 1 6 C-2.63 5.67 -6.26 5.34 -10 5 C-9.67 6.32 -9.34 7.64 -9 9 C-6.75724453 10.25087782 -6.75724453 10.25087782 -4.0625 11.0625 C0.79369981 12.69054972 0.79369981 12.69054972 3 16 C3.66676699 22.1120307 3.66676699 22.1120307 1.3515625 25.1953125 C-1.62274797 27.47792286 -3.28614093 27.50713486 -7 27.4375 C-8.546875 27.43556641 -8.546875 27.43556641 -10.125 27.43359375 C-13.27182056 26.95900532 -14.67018047 26.11139895 -17 24 C-16.67 22.35 -16.34 20.7 -16 19 C-15.31292969 19.22816406 -14.62585938 19.45632813 -13.91796875 19.69140625 C-12.56638672 20.12259766 -12.56638672 20.12259766 -11.1875 20.5625 C-10.29417969 20.85253906 -9.40085937 21.14257812 -8.48046875 21.44140625 C-5.88784861 22.24979556 -5.88784861 22.24979556 -3 21 C-3 20.01 -3 19.02 -3 18 C-3.85464844 17.59007812 -4.70929687 17.18015625 -5.58984375 16.7578125 C-6.69457031 16.21898437 -7.79929687 15.68015625 -8.9375 15.125 C-10.03964844 14.59132813 -11.14179687 14.05765625 -12.27734375 13.5078125 C-15 12 -15 12 -16 10 C-16.04022391 7.6670134 -16.04320247 5.33293334 -16 3 C-10.4677385 -0.88435382 -6.60756391 -1.81836061 0 0 Z " fill="#6BA101" transform="translate(905,1147)"/>
<path d="M0 0 C1.48831242 0.00667405 2.97660807 0.01863442 4.46484375 0.03515625 C5.22345703 0.03966797 5.98207031 0.04417969 6.76367188 0.04882812 C8.64326246 0.06064945 10.52281274 0.07858547 12.40234375 0.09765625 C12.73234375 1.74765625 13.06234375 3.39765625 13.40234375 5.09765625 C10.28053974 6.06426988 7.8815058 6.08754534 4.65234375 5.66015625 C3.45351563 5.50740234 3.45351563 5.50740234 2.23046875 5.3515625 C1.6271875 5.26777344 1.02390625 5.18398437 0.40234375 5.09765625 C0.40234375 7.73765625 0.40234375 10.37765625 0.40234375 13.09765625 C6.34234375 12.60265625 6.34234375 12.60265625 12.40234375 12.09765625 C12.40234375 13.41765625 12.40234375 14.73765625 12.40234375 16.09765625 C8.44234375 16.42765625 4.48234375 16.75765625 0.40234375 17.09765625 C0.40234375 18.74765625 0.40234375 20.39765625 0.40234375 22.09765625 C2.28059266 23.97590516 5.44169651 23.48868022 7.96484375 23.66015625 C9.16238281 23.74394531 10.35992188 23.82773438 11.59375 23.9140625 C12.98400391 24.00494141 12.98400391 24.00494141 14.40234375 24.09765625 C14.40234375 25.41765625 14.40234375 26.73765625 14.40234375 28.09765625 C12.38326248 28.32233597 10.3619056 28.52660516 8.33984375 28.72265625 C7.21449219 28.83867188 6.08914063 28.9546875 4.9296875 29.07421875 C0.93449996 29.10076485 -1.83210258 28.35443977 -5.59765625 27.09765625 C-5.78967351 8.51465253 -5.78967351 8.51465253 -4.59765625 1.09765625 C-3.59765625 0.09765625 -3.59765625 0.09765625 0 0 Z " fill="#6BA101" transform="translate(782.59765625,1145.90234375)"/>
<path d="M0 0 C1.24910156 0.00515625 2.49820313 0.0103125 3.78515625 0.015625 C5.03167969 0.01046875 6.27820313 0.0053125 7.5625 0 C10.84765625 0.265625 10.84765625 0.265625 13.84765625 2.265625 C13.51765625 3.255625 13.18765625 4.245625 12.84765625 5.265625 C7.40265625 5.760625 7.40265625 5.760625 1.84765625 6.265625 C1.51765625 7.915625 1.18765625 9.565625 0.84765625 11.265625 C4.14765625 11.595625 7.44765625 11.925625 10.84765625 12.265625 C11.17765625 13.915625 11.50765625 15.565625 11.84765625 17.265625 C8.21765625 17.265625 4.58765625 17.265625 0.84765625 17.265625 C0.51765625 20.895625 0.18765625 24.525625 -0.15234375 28.265625 C-1.47234375 28.265625 -2.79234375 28.265625 -4.15234375 28.265625 C-6.74189532 25.67607343 -5.33793167 18.31384897 -5.33984375 14.828125 C-5.35208984 13.65701172 -5.36433594 12.48589844 -5.37695312 11.27929688 C-5.37888672 10.16232422 -5.38082031 9.04535156 -5.3828125 7.89453125 C-5.38692139 6.86400635 -5.39103027 5.83348145 -5.39526367 4.77172852 C-5.0133642 0.83183099 -3.84906293 0.32433244 0 0 Z " fill="#6BA101" transform="translate(700.15234375,1145.734375)"/>
<path d="M0 0 C1.48831242 0.00667405 2.97660807 0.01863442 4.46484375 0.03515625 C5.22345703 0.03966797 5.98207031 0.04417969 6.76367188 0.04882812 C8.64326246 0.06064945 10.52281274 0.07858547 12.40234375 0.09765625 C12.73234375 1.74765625 13.06234375 3.39765625 13.40234375 5.09765625 C6.96734375 5.59265625 6.96734375 5.59265625 0.40234375 6.09765625 C0.73234375 7.74765625 1.06234375 9.39765625 1.40234375 11.09765625 C4.70234375 11.42765625 8.00234375 11.75765625 11.40234375 12.09765625 C11.73234375 13.41765625 12.06234375 14.73765625 12.40234375 16.09765625 C8.52550288 17.29053036 5.48612452 18.09765625 1.40234375 18.09765625 C1.07234375 21.39765625 0.74234375 24.69765625 0.40234375 28.09765625 C-1.24765625 28.09765625 -2.89765625 28.09765625 -4.59765625 28.09765625 C-4.62651963 23.61850297 -4.64440812 19.13937334 -4.66015625 14.66015625 C-4.66853516 13.38076172 -4.67691406 12.10136719 -4.68554688 10.78320312 C-4.68876953 9.56826172 -4.69199219 8.35332031 -4.6953125 7.1015625 C-4.70054932 5.97564697 -4.70578613 4.84973145 -4.71118164 3.68969727 C-4.53469681 -0.33985 -4.1876456 0.11367116 0 0 Z " fill="#6BA101" transform="translate(992.59765625,1145.90234375)"/>
<path d="M0 0 C1.26166992 0.00580078 1.26166992 0.00580078 2.54882812 0.01171875 C3.38607422 0.00785156 4.22332031 0.00398438 5.0859375 0 C5.88708984 0.00128906 6.68824219 0.00257812 7.51367188 0.00390625 C8.25093506 0.00503418 8.98819824 0.00616211 9.74780273 0.00732422 C11.61132812 0.13671875 11.61132812 0.13671875 13.61132812 1.13671875 C13.61132812 2.45671875 13.61132812 3.77671875 13.61132812 5.13671875 C10.97132813 5.46671875 8.33132813 5.79671875 5.61132812 6.13671875 C5.61132812 13.06671875 5.61132812 19.99671875 5.61132812 27.13671875 C3.96132813 27.46671875 2.31132812 27.79671875 0.61132812 28.13671875 C-0.38867188 27.13671875 -0.38867188 27.13671875 -0.50219727 25.09545898 C-0.49696045 24.22091064 -0.49172363 23.3463623 -0.48632812 22.4453125 C-0.48310547 21.50107422 -0.47988281 20.55683594 -0.4765625 19.58398438 C-0.46818359 18.59076172 -0.45980469 17.59753906 -0.45117188 16.57421875 C-0.44666016 15.57712891 -0.44214844 14.58003906 -0.4375 13.55273438 C-0.42567194 11.08067026 -0.40919037 8.60872357 -0.38867188 6.13671875 C-3.02867187 5.80671875 -5.66867187 5.47671875 -8.38867188 5.13671875 C-7.1157191 -0.50064353 -5.77628988 0.00930909 0 0 Z " fill="#6BA101" transform="translate(490.388671875,1145.86328125)"/>
<path d="M0 0 C2.95839355 -0.02689449 5.91654427 -0.04678741 8.875 -0.0625 C9.71675781 -0.07087891 10.55851563 -0.07925781 11.42578125 -0.08789062 C12.23144531 -0.09111328 13.03710938 -0.09433594 13.8671875 -0.09765625 C14.98262939 -0.10551147 14.98262939 -0.10551147 16.12060547 -0.11352539 C18 0 18 0 20 1 C20 2.32 20 3.64 20 5 C17.69 5.33 15.38 5.66 13 6 C12.67 13.26 12.34 20.52 12 28 C11.01 28.33 10.02 28.66 9 29 C8.34 28.67 7.68 28.34 7 28 C7 20.74 7 13.48 7 6 C4.36 5.67 1.72 5.34 -1 5 C-0.67 3.35 -0.34 1.7 0 0 Z " fill="#6BA101" transform="translate(576,1146)"/>
<path d="M0 0 C0.99 0.33 1.98 0.66 3 1 C3.90833969 3.72501908 4.18359985 5.62233971 4.31640625 8.44921875 C4.35830078 9.29677734 4.40019531 10.14433594 4.44335938 11.01757812 C4.48267578 11.89865234 4.52199219 12.77972656 4.5625 13.6875 C4.60568359 14.58017578 4.64886719 15.47285156 4.69335938 16.39257812 C4.7993522 18.59487344 4.90017221 20.79741662 5 23 C8.3 23.33 11.6 23.66 15 24 C14.67 25.32 14.34 26.64 14 28 C11.52076199 28.02685095 9.0418116 28.04676547 6.5625 28.0625 C5.85544922 28.07087891 5.14839844 28.07925781 4.41992188 28.08789062 C2.61306441 28.09653588 0.80612397 28.05220011 -1 28 C-3.58955157 25.41044843 -2.18558792 18.04822397 -2.1875 14.5625 C-2.19974609 13.39138672 -2.21199219 12.22027344 -2.22460938 11.01367188 C-2.22654297 9.89669922 -2.22847656 8.77972656 -2.23046875 7.62890625 C-2.23457764 6.59838135 -2.23868652 5.56785645 -2.24291992 4.50610352 C-2 2 -2 2 0 0 Z " fill="#6BA101" transform="translate(846,1146)"/>
<path d="" fill="#6BA101" transform="translate(0,0)"/>
</svg>
